<svg xmlns="http://www.w3.org/2000/svg" viewBox="0 0 40 40" width="40px" height="40px"><path fill="#fff7f9" d="M25.76,37.5c-1.966,0-2.26-2.192-2.26-3.5l0.004-0.818c0.021-3.23,0.053-8.113-1.77-9.947 C21.25,22.747,20.666,22.5,20,22.5s-1.25,0.247-1.734,0.734c-1.822,1.834-1.79,6.717-1.77,9.947L16.5,34 c0,1.308-0.294,3.5-2.261,3.5c-2.255,0-2.99-3.53-3.841-7.618c-0.275-1.323-0.561-2.691-0.916-4.012 c-0.552-2.004-1.488-3.874-2.394-5.683C5.758,17.528,4.5,15.016,4.5,12.286C4.5,5.701,7.843,2.5,14.72,2.5 c1.33,0,3.656,0.37,4.866,0.902l0.09,0.039c0,0,0.101,0.003,0.102,0.003c0.231,0,0.398-0.043,0.431-0.052 c0.04-0.012,3.036-0.893,4.698-0.893c3.438,0,6.238,0.996,8.101,2.879c1.663,1.682,2.524,4.068,2.492,6.901 c0,2.734-1.257,5.247-2.588,7.907c-0.905,1.809-1.842,3.679-2.394,5.68c-0.36,1.322-0.648,2.701-0.927,4.036 C28.774,33.81,28.004,37.5,25.76,37.5z"/><path fill="#f3b6c2" d="M24.906,3c3.301,0,5.979,0.944,7.746,2.731c1.589,1.607,2.378,3.808,2.347,6.555 c0,2.611-1.232,5.072-2.536,7.678c-0.916,1.83-1.863,3.723-2.428,5.773c-0.364,1.335-0.654,2.722-0.934,4.063 C28.328,33.502,27.598,37,25.759,37C24.305,37,24,35.369,24,34c0-0.249,0.002-0.523,0.004-0.815 c0.027-4.211-0.098-8.475-1.915-10.303C21.516,22.305,20.793,22,20,22c-0.793,0-1.516,0.305-2.089,0.882 c-1.817,1.828-1.942,6.092-1.915,10.303C15.998,33.477,16,33.751,16,34c0,1.369-0.305,3-1.76,3c-1.849,0-2.579-3.508-3.352-7.222 c-0.277-1.329-0.563-2.704-0.923-4.044c-0.565-2.048-1.512-3.94-2.428-5.77C6.232,17.358,5,14.897,5,12.286 C5,6.037,8.179,3,14.72,3c1.279,0,3.545,0.368,4.665,0.859L19.6,3.944h0.21c0.255,0,0.471-0.054,0.55-0.075 C21.177,3.627,23.587,3,24.906,3 M24.906,2c-1.756,0-4.83,0.91-4.83,0.91s-0.125,0.034-0.266,0.034c-0.007,0-0.015,0-0.022,0 C18.531,2.392,16.139,2,14.72,2C7.373,2,4,5.65,4,12.286C4,17.057,7.664,21.155,9,26c1.484,5.516,1.752,12,5.24,12 c1.855,0,2.76-1.614,2.76-4c0-3.355-0.318-11,3-11s3,7.645,3,11c0,2.386,0.906,4,2.759,4c3.488,0,3.757-6.559,5.241-12 c1.336-4.845,4.999-8.944,4.999-13.714C36.074,5.65,31.544,2,24.906,2L24.906,2z"/><path fill="none" stroke="#f3b6c2" stroke-linecap="round" stroke-miterlimit="10" d="M23.5,6.5c0,0-3-4-8.5-4"/></svg>
